<svg xmlns="http://www.w3.org/2000/svg" viewBox="0 0 64 64">
  <!-- Chip 1 (bottom) - blue -->
  <ellipse cx="32" cy="52" rx="22" ry="7" fill="#1a3d8f" stroke="#fff" stroke-width="1.5"/>
  <rect x="10" y="48" width="44" height="4" fill="#1a3d8f"/>
  <line x1="10" y1="48" x2="10" y2="52" stroke="#fff" stroke-width="1.5"/>
  <line x1="54" y1="48" x2="54" y2="52" stroke="#fff" stroke-width="1.5"/>
  <ellipse cx="32" cy="48" rx="22" ry="7" fill="#1a3d8f" stroke="#fff" stroke-width="1.5"/>
  <ellipse cx="32" cy="48" rx="16" ry="5" fill="none" stroke="#fff" stroke-width="1" stroke-dasharray="4 3"/>

  <!-- Chip 2 - green -->
  <ellipse cx="32" cy="44" rx="22" ry="7" fill="#1a7e1a" stroke="#fff" stroke-width="1.5"/>
  <rect x="10" y="40" width="44" height="4" fill="#1a7e1a"/>
  <line x1="10" y1="40" x2="10" y2="44" stroke="#fff" stroke-width="1.5"/>
  <line x1="54" y1="40" x2="54" y2="44" stroke="#fff" stroke-width="1.5"/>
  <ellipse cx="32" cy="40" rx="22" ry="7" fill="#1a7e1a" stroke="#fff" stroke-width="1.5"/>
  <ellipse cx="32" cy="40" rx="16" ry="5" fill="none" stroke="#fff" stroke-width="1" stroke-dasharray="4 3"/>

  <!-- Chip 3 - red -->
  <ellipse cx="32" cy="36" rx="22" ry="7" fill="#cc2222" stroke="#fff" stroke-width="1.5"/>
  <rect x="10" y="32" width="44" height="4" fill="#cc2222"/>
  <line x1="10" y1="32" x2="10" y2="36" stroke="#fff" stroke-width="1.5"/>
  <line x1="54" y1="32" x2="54" y2="36" stroke="#fff" stroke-width="1.5"/>
  <ellipse cx="32" cy="32" rx="22" ry="7" fill="#cc2222" stroke="#fff" stroke-width="1.5"/>
  <ellipse cx="32" cy="32" rx="16" ry="5" fill="none" stroke="#fff" stroke-width="1" stroke-dasharray="4 3"/>

  <!-- Chip 4 - black -->
  <ellipse cx="32" cy="28" rx="22" ry="7" fill="#222" stroke="#fff" stroke-width="1.5"/>
  <rect x="10" y="24" width="44" height="4" fill="#222"/>
  <line x1="10" y1="24" x2="10" y2="28" stroke="#fff" stroke-width="1.5"/>
  <line x1="54" y1="24" x2="54" y2="28" stroke="#fff" stroke-width="1.5"/>
  <ellipse cx="32" cy="24" rx="22" ry="7" fill="#222" stroke="#fff" stroke-width="1.5"/>
  <ellipse cx="32" cy="24" rx="16" ry="5" fill="none" stroke="#fff" stroke-width="1" stroke-dasharray="4 3"/>

  <!-- Chip 5 (top) - gold -->
  <ellipse cx="32" cy="20" rx="22" ry="7" fill="#d4a017" stroke="#fff" stroke-width="1.5"/>
  <rect x="10" y="16" width="44" height="4" fill="#d4a017"/>
  <line x1="10" y1="16" x2="10" y2="20" stroke="#fff" stroke-width="1.5"/>
  <line x1="54" y1="16" x2="54" y2="20" stroke="#fff" stroke-width="1.5"/>
  <ellipse cx="32" cy="16" rx="22" ry="7" fill="#d4a017" stroke="#fff" stroke-width="1.5"/>
  <ellipse cx="32" cy="16" rx="16" ry="5" fill="none" stroke="#fff" stroke-width="1" stroke-dasharray="4 3"/>
</svg>
